<?xml version="1.0" standalone="no"?>
<!DOCTYPE svg PUBLIC "-//W3C//DTD SVG 20010904//EN"
 "http://www.w3.org/TR/2001/REC-SVG-20010904/DTD/svg10.dtd">
<svg version="1.0" xmlns="http://www.w3.org/2000/svg"
 width="300.000000pt" height="300.000000pt" viewBox="0 0 300.000000 300.000000"
 preserveAspectRatio="xMidYMid meet">

<g transform="translate(0.000000,300.000000) scale(0.100000,-0.100000)"
fill="#000000" stroke="none">
<path d="M1801 2545 c-41 -7 -153 -12 -257 -11 -101 1 -184 -2 -184 -5 0 -20
344 -19 518 1 67 8 122 18 122 22 0 11 -113 8 -199 -7z" fill="white"/>
<path d="M1307 2533 c-13 -22 -32 -494 -32 -818 0 -283 4 -412 18 -550 19
-189 32 -442 32 -610 l0 -100 -75 -7 c-41 -3 -129 -11 -194 -17 -66 -6 -210
-12 -319 -12 -138 0 -197 -3 -190 -10 31 -31 424 -35 642 -6 66 8 254 12 609
11 481 -1 512 0 512 17 0 15 -16 18 -127 25 -71 5 -275 8 -455 7 l-328 -1 0
149 c0 82 -6 214 -14 292 -8 78 -17 187 -21 242 -3 55 -10 127 -15 160 -9 57
-16 376 -22 973 -2 235 -6 280 -21 255z" fill="white"/>
<path d="M1995 2377 c-4 -71 -5 -148 -3 -172 6 -51 0 -59 -79 -99 -74 -37
-104 -85 -111 -176 -4 -65 -3 -72 28 -120 26 -40 45 -56 95 -80 35 -16 72 -30
84 -30 18 0 21 -6 21 -42 0 -24 3 -67 7 -97 6 -53 6 -54 -18 -49 -13 3 -77 29
-141 58 -67 29 -127 50 -140 47 -20 -3 -19 -5 14 -20 20 -9 81 -43 135 -76 54
-32 112 -65 128 -74 l30 -15 11 -139 c10 -114 9 -141 -2 -158 -7 -11 -56 -74
-108 -139 -112 -141 -136 -180 -119 -197 17 -17 35 0 102 100 32 47 85 127
118 176 l60 90 -7 155 c-5 85 -5 158 -2 162 10 9 78 47 210 119 106 57 131 82
98 95 -18 7 -125 -50 -229 -123 -43 -29 -82 -51 -87 -48 -10 6 -16 35 -25 116
l-6 56 38 11 c93 28 155 105 168 207 17 126 -56 231 -182 264 -50 14 -50 13
-57 161 -8 172 -22 188 -31 37z m118 -263 c56 -19 87 -59 106 -141 15 -61 7
-96 -35 -150 -37 -48 -92 -73 -162 -73 -49 0 -66 5 -99 29 -70 51 -86 83 -80
157 6 75 34 120 102 163 50 32 101 36 168 15z" fill="white"/>
<path d="M2145 1086 c26 -40 186 -176 207 -176 33 0 21 42 -20 69 -20 13 -74
48 -120 78 -66 43 -80 49 -67 29z" fill="white"/>
</g>
</svg>
