<?xml version="1.0" standalone="no"?>
<!DOCTYPE svg PUBLIC "-//W3C//DTD SVG 20010904//EN"
 "http://www.w3.org/TR/2001/REC-SVG-20010904/DTD/svg10.dtd">
<svg version="1.0" xmlns="http://www.w3.org/2000/svg"
 width="300.000000pt" height="300.000000pt" viewBox="0 0 300.000000 300.000000"
 preserveAspectRatio="xMidYMid meet">

<g transform="translate(0.000000,300.000000) scale(0.100000,-0.100000)"
fill="#000000" stroke="none">
<path d="M1801 2545 c-41 -7 -153 -12 -257 -11 -101 1 -184 -2 -184 -5 0 -20
344 -19 518 1 67 8 122 18 122 22 0 11 -113 8 -199 -7z" fill="white"/>
<path d="M1300 2526 c0 -9 5 -16 10 -16 6 0 10 4 10 9 0 6 -4 13 -10 16 -5 3
-10 -1 -10 -9z" fill="white"/>
<path d="M1307 2494 c-15 -25 -31 -406 -31 -764 -1 -300 3 -425 17 -565 19
-189 32 -442 32 -610 l0 -100 -75 -7 c-41 -3 -129 -11 -194 -17 -66 -6 -210
-12 -319 -12 -138 0 -197 -3 -190 -10 31 -31 424 -35 642 -6 66 8 254 12 609
11 481 -1 512 0 512 17 0 15 -16 18 -127 25 -71 5 -275 8 -455 7 l-328 -1 0
149 c0 82 -6 214 -14 292 -8 78 -17 187 -21 242 -3 55 -11 127 -16 160 -5 33
-12 305 -16 604 -5 512 -10 610 -26 585z" fill="white"/>
<path d="M1995 2377 c-4 -71 -5 -148 -3 -172 6 -51 0 -59 -79 -99 -74 -37
-104 -85 -111 -176 -4 -65 -3 -72 28 -120 26 -40 45 -56 95 -80 35 -16 72 -30
83 -30 18 0 20 -10 26 -107 4 -59 12 -116 18 -127 11 -20 11 -20 27 0 9 10 39
31 66 46 28 15 101 55 163 89 106 57 131 82 98 95 -18 7 -125 -50 -229 -123
-43 -29 -82 -51 -87 -48 -10 6 -16 35 -25 116 l-6 56 38 11 c93 28 155 105
168 207 17 126 -56 231 -182 264 -50 14 -50 13 -57 161 -8 172 -22 188 -31 37z
m118 -263 c56 -19 87 -59 106 -141 15 -61 7 -96 -35 -150 -37 -48 -92 -73
-162 -73 -49 0 -66 5 -99 29 -70 51 -86 83 -80 157 6 75 34 120 102 163 50 32
101 36 168 15z" fill="white"/>
</g>
</svg>
